<svg xmlns="http://www.w3.org/2000/svg" viewBox="0 0 64 64" fill="none">
  <rect width="64" height="64" rx="16" fill="#101010"/>
  <rect x="4" y="4" width="56" height="56" rx="14" fill="url(#g2)"/>
  <path d="M45 18H25.8c-3.4 0-6.2 2.5-6.2 5.6 0 3.2 2.3 5.2 7 6.1l7.2 1.5c2.4.5 3.4 1.2 3.4 2.5 0 1.5-1.4 2.5-3.7 2.5H19.2v8h14.4c7.1 0 11.8-3.8 11.8-9.9 0-4.7-2.8-7.5-8.9-8.7l-7.1-1.5c-1.5-.3-2.2-.9-2.2-1.8 0-1.2 1.1-2 3-2H45v-2.3Z" fill="#101010"/>
  <defs>
    <linearGradient id="g2" x1="8" y1="6" x2="56" y2="58" gradientUnits="userSpaceOnUse">
      <stop stop-color="#FFE7A1"/>
      <stop offset=".6" stop-color="#F2B31A"/>
      <stop offset="1" stop-color="#8F5C00"/>
    </linearGradient>
  </defs>
</svg>
