<svg xmlns="http://www.w3.org/2000/svg" viewBox="0 0 96 96" fill="none">
  <rect width="96" height="96" rx="24" fill="#121212"/>
  <rect x="6" y="6" width="84" height="84" rx="20" fill="url(#g1)" stroke="rgba(255,255,255,.08)"/>
  <path d="M66.3 29.2H37.8c-4.8 0-8.7 3.7-8.7 8.1 0 4.7 3.2 7.5 9.9 8.9l10.5 2.2c3.3.7 4.7 1.6 4.7 3.4 0 2.1-1.9 3.5-5.1 3.5H28.8v11.4h20.8c10.1 0 16.8-5.5 16.8-14.2 0-6.7-4.1-10.6-12.6-12.3l-10.3-2.1c-2.2-.4-3.2-1.2-3.2-2.6 0-1.7 1.6-2.9 4.2-2.9h21.8V29.2Z" fill="#111"/>
  <path d="M67.5 17.5 77 27" stroke="#FFF1CD" stroke-width="4" stroke-linecap="round"/>
  <defs>
    <linearGradient id="g1" x1="10" y1="8" x2="86" y2="88" gradientUnits="userSpaceOnUse">
      <stop stop-color="#FFD96A"/>
      <stop offset=".5" stop-color="#F2B31A"/>
      <stop offset="1" stop-color="#A66C00"/>
    </linearGradient>
  </defs>
</svg>
